<svg xmlns="http://www.w3.org/2000/svg" xmlns:xlink="http://www.w3.org/1999/xlink" width="216" zoomAndPan="magnify" viewBox="0 0 162 161.999997" height="216" preserveAspectRatio="xMidYMid meet" version="1.0"><defs><clipPath id="c272d65d14"><path d="M 23.378906 23.378906 L 138.578125 23.378906 L 138.578125 138.578125 L 23.378906 138.578125 Z M 23.378906 23.378906 " clip-rule="nonzero"/></clipPath><clipPath id="7a0299011c"><path d="M 0.378906 0.378906 L 115.578125 0.378906 L 115.578125 115.578125 L 0.378906 115.578125 Z M 0.378906 0.378906 " clip-rule="nonzero"/></clipPath><clipPath id="3d9414267e"><rect x="0" width="116" y="0" height="116"/></clipPath><clipPath id="479835a95b"><path d="M 46.753906 46.753906 L 91.824219 46.753906 L 91.824219 91.824219 L 46.753906 91.824219 Z M 46.753906 46.753906 " clip-rule="nonzero"/></clipPath><clipPath id="85fb81a09b"><path d="M 0.753906 0.753906 L 45.824219 0.753906 L 45.824219 45.824219 L 0.753906 45.824219 Z M 0.753906 0.753906 " clip-rule="nonzero"/></clipPath><clipPath id="2b426cfa5a"><rect x="0" width="46" y="0" height="46"/></clipPath><clipPath id="bab7b15d56"><path d="M 115.199219 115.199219 L 161.953125 115.199219 L 161.953125 161.953125 L 115.199219 161.953125 Z M 115.199219 115.199219 " clip-rule="nonzero"/></clipPath><clipPath id="4bc9bfcad5"><path d="M 127.199219 115.199219 L 149.953125 115.199219 C 156.582031 115.199219 161.953125 120.574219 161.953125 127.199219 L 161.953125 149.953125 C 161.953125 156.582031 156.582031 161.953125 149.953125 161.953125 L 127.199219 161.953125 C 120.574219 161.953125 115.199219 156.582031 115.199219 149.953125 L 115.199219 127.199219 C 115.199219 120.574219 120.574219 115.199219 127.199219 115.199219 Z M 127.199219 115.199219 " clip-rule="nonzero"/></clipPath><clipPath id="69c6338e38"><path d="M 0.199219 0.199219 L 46.953125 0.199219 L 46.953125 46.953125 L 0.199219 46.953125 Z M 0.199219 0.199219 " clip-rule="nonzero"/></clipPath><clipPath id="442f3d0750"><path d="M 12.199219 0.199219 L 34.953125 0.199219 C 41.582031 0.199219 46.953125 5.574219 46.953125 12.199219 L 46.953125 34.953125 C 46.953125 41.582031 41.582031 46.953125 34.953125 46.953125 L 12.199219 46.953125 C 5.574219 46.953125 0.199219 41.582031 0.199219 34.953125 L 0.199219 12.199219 C 0.199219 5.574219 5.574219 0.199219 12.199219 0.199219 Z M 12.199219 0.199219 " clip-rule="nonzero"/></clipPath><clipPath id="d98cebe45f"><rect x="0" width="47" y="0" height="47"/></clipPath><clipPath id="993a585546"><path d="M 115.199219 0 L 161.953125 0 L 161.953125 46.753906 L 115.199219 46.753906 Z M 115.199219 0 " clip-rule="nonzero"/></clipPath><clipPath id="99d8c4c3f4"><path d="M 127.199219 0 L 149.953125 0 C 156.582031 0 161.953125 5.371094 161.953125 12 L 161.953125 34.753906 C 161.953125 41.382812 156.582031 46.753906 149.953125 46.753906 L 127.199219 46.753906 C 120.574219 46.753906 115.199219 41.382812 115.199219 34.753906 L 115.199219 12 C 115.199219 5.371094 120.574219 0 127.199219 0 Z M 127.199219 0 " clip-rule="nonzero"/></clipPath><clipPath id="058e52f4d6"><path d="M 0.199219 0 L 46.953125 0 L 46.953125 46.753906 L 0.199219 46.753906 Z M 0.199219 0 " clip-rule="nonzero"/></clipPath><clipPath id="6b6e10398f"><path d="M 12.199219 0 L 34.953125 0 C 41.582031 0 46.953125 5.371094 46.953125 12 L 46.953125 34.753906 C 46.953125 41.382812 41.582031 46.753906 34.953125 46.753906 L 12.199219 46.753906 C 5.574219 46.753906 0.199219 41.382812 0.199219 34.753906 L 0.199219 12 C 0.199219 5.371094 5.574219 0 12.199219 0 Z M 12.199219 0 " clip-rule="nonzero"/></clipPath><clipPath id="cf51a93813"><rect x="0" width="47" y="0" height="47"/></clipPath><clipPath id="c8a179702d"><path d="M 0 0 L 46.753906 0 L 46.753906 46.753906 L 0 46.753906 Z M 0 0 " clip-rule="nonzero"/></clipPath><clipPath id="725adb5392"><path d="M 12 0 L 34.753906 0 C 41.382812 0 46.753906 5.371094 46.753906 12 L 46.753906 34.753906 C 46.753906 41.382812 41.382812 46.753906 34.753906 46.753906 L 12 46.753906 C 5.371094 46.753906 0 41.382812 0 34.753906 L 0 12 C 0 5.371094 5.371094 0 12 0 Z M 12 0 " clip-rule="nonzero"/></clipPath><clipPath id="c68849cdc9"><path d="M 0 0 L 46.753906 0 L 46.753906 46.753906 L 0 46.753906 Z M 0 0 " clip-rule="nonzero"/></clipPath><clipPath id="a90f3410a0"><path d="M 12 0 L 34.753906 0 C 41.382812 0 46.753906 5.371094 46.753906 12 L 46.753906 34.753906 C 46.753906 41.382812 41.382812 46.753906 34.753906 46.753906 L 12 46.753906 C 5.371094 46.753906 0 41.382812 0 34.753906 L 0 12 C 0 5.371094 5.371094 0 12 0 Z M 12 0 " clip-rule="nonzero"/></clipPath><clipPath id="30d45de6b3"><rect x="0" width="47" y="0" height="47"/></clipPath><clipPath id="dc36a0b4a5"><path d="M 0 115.199219 L 46.753906 115.199219 L 46.753906 161.953125 L 0 161.953125 Z M 0 115.199219 " clip-rule="nonzero"/></clipPath><clipPath id="208ffbe6e8"><path d="M 12 115.199219 L 34.753906 115.199219 C 41.382812 115.199219 46.753906 120.574219 46.753906 127.199219 L 46.753906 149.953125 C 46.753906 156.582031 41.382812 161.953125 34.753906 161.953125 L 12 161.953125 C 5.371094 161.953125 0 156.582031 0 149.953125 L 0 127.199219 C 0 120.574219 5.371094 115.199219 12 115.199219 Z M 12 115.199219 " clip-rule="nonzero"/></clipPath><clipPath id="b37fe990ef"><path d="M 0 0.199219 L 46.753906 0.199219 L 46.753906 46.953125 L 0 46.953125 Z M 0 0.199219 " clip-rule="nonzero"/></clipPath><clipPath id="ada4269900"><path d="M 12 0.199219 L 34.753906 0.199219 C 41.382812 0.199219 46.753906 5.574219 46.753906 12.199219 L 46.753906 34.953125 C 46.753906 41.582031 41.382812 46.953125 34.753906 46.953125 L 12 46.953125 C 5.371094 46.953125 0 41.582031 0 34.953125 L 0 12.199219 C 0 5.574219 5.371094 0.199219 12 0.199219 Z M 12 0.199219 " clip-rule="nonzero"/></clipPath><clipPath id="e30152214d"><rect x="0" width="47" y="0" height="47"/></clipPath><clipPath id="6ac52cb70b"><path d="M 91.824219 91.824219 L 115.199219 91.824219 L 115.199219 115.199219 L 91.824219 115.199219 Z M 91.824219 91.824219 " clip-rule="nonzero"/></clipPath><clipPath id="7ff1454714"><path d="M 103.511719 91.824219 C 106.613281 91.824219 109.585938 93.054688 111.777344 95.246094 C 113.96875 97.4375 115.199219 100.410156 115.199219 103.511719 C 115.199219 106.613281 113.96875 109.585938 111.777344 111.777344 C 109.585938 113.96875 106.613281 115.199219 103.511719 115.199219 C 100.410156 115.199219 97.4375 113.96875 95.246094 111.777344 C 93.054688 109.585938 91.824219 106.613281 91.824219 103.511719 C 91.824219 100.410156 93.054688 97.4375 95.246094 95.246094 C 97.4375 93.054688 100.410156 91.824219 103.511719 91.824219 Z M 103.511719 91.824219 " clip-rule="nonzero"/></clipPath><clipPath id="9966c76165"><path d="M 0.824219 0.824219 L 24.199219 0.824219 L 24.199219 24.199219 L 0.824219 24.199219 Z M 0.824219 0.824219 " clip-rule="nonzero"/></clipPath><clipPath id="5da1caf35d"><path d="M 12.511719 0.824219 C 15.613281 0.824219 18.585938 2.054688 20.777344 4.246094 C 22.96875 6.4375 24.199219 9.410156 24.199219 12.511719 C 24.199219 15.613281 22.96875 18.585938 20.777344 20.777344 C 18.585938 22.96875 15.613281 24.199219 12.511719 24.199219 C 9.410156 24.199219 6.4375 22.96875 4.246094 20.777344 C 2.054688 18.585938 0.824219 15.613281 0.824219 12.511719 C 0.824219 9.410156 2.054688 6.4375 4.246094 4.246094 C 6.4375 2.054688 9.410156 0.824219 12.511719 0.824219 Z M 12.511719 0.824219 " clip-rule="nonzero"/></clipPath><clipPath id="1ba7395ff7"><rect x="0" width="25" y="0" height="25"/></clipPath>
<mask id="logo-cutouts">
<rect width="162" height="162" fill="white"/>
<rect x="46.75" y="46.75" width="45.1" height="45.1" fill="black"/>
<path d="M 127.199219 115.199219 L 149.953125 115.199219 C 156.582031 115.199219 161.953125 120.574219 161.953125 127.199219 L 161.953125 149.953125 C 161.953125 156.582031 156.582031 161.953125 149.953125 161.953125 L 127.199219 161.953125 C 120.574219 161.953125 115.199219 156.582031 115.199219 149.953125 L 115.199219 127.199219 C 115.199219 120.574219 120.574219 115.199219 127.199219 115.199219 Z" fill="black"/>
<path d="M 127.199219 0 L 149.953125 0 C 156.582031 0 161.953125 5.371094 161.953125 12 L 161.953125 34.753906 C 161.953125 41.382812 156.582031 46.753906 149.953125 46.753906 L 127.199219 46.753906 C 120.574219 46.753906 115.199219 41.382812 115.199219 34.753906 L 115.199219 12 C 115.199219 5.371094 120.574219 0 127.199219 0 Z" fill="black"/>
<path d="M 12 0 L 34.753906 0 C 41.382812 0 46.753906 5.371094 46.753906 12 L 46.753906 34.753906 C 46.753906 41.382812 41.382812 46.753906 34.753906 46.753906 L 12 46.753906 C 5.371094 46.753906 0 41.382812 0 34.753906 L 0 12 C 0 5.371094 5.371094 0 12 0 Z" fill="black"/>
<path d="M 12 115.199219 L 34.753906 115.199219 C 41.382812 115.199219 46.753906 120.574219 46.753906 127.199219 L 46.753906 149.953125 C 46.753906 156.582031 41.382812 161.953125 34.753906 161.953125 L 12 161.953125 C 5.371094 161.953125 0 156.582031 0 149.953125 L 0 127.199219 C 0 120.574219 5.371094 115.199219 12 115.199219 Z" fill="black"/>
<path d="M 103.511719 91.824219 C 106.613281 91.824219 109.585938 93.054688 111.777344 95.246094 C 113.96875 97.4375 115.199219 100.410156 115.199219 103.511719 C 115.199219 106.613281 113.96875 109.585938 111.777344 111.777344 C 109.585938 113.96875 106.613281 115.199219 103.511719 115.199219 C 100.410156 115.199219 97.4375 113.96875 95.246094 111.777344 C 93.054688 109.585938 91.824219 106.613281 91.824219 103.511719 C 91.824219 100.410156 93.054688 97.4375 95.246094 95.246094 C 97.4375 93.054688 100.410156 91.824219 103.511719 91.824219 Z" fill="black"/>
</mask></defs><g clip-path="url(#c272d65d14)" mask="url(#logo-cutouts)"><g transform="matrix(1, 0, 0, 1, 23, 23)"><g clip-path="url(#3d9414267e)"><g clip-path="url(#7a0299011c)"><path fill="#42c66f" d="M 0.378906 0.378906 L 115.578125 0.378906 L 115.578125 115.578125 L 0.378906 115.578125 Z M 0.378906 0.378906 " fill-opacity="1" fill-rule="nonzero"/></g></g></g></g></svg>